<svg width="734" height="674" viewBox="0 0 734 674" fill="none" xmlns="http://www.w3.org/2000/svg">
<path d="M412.294 93.1055L463.51 199.517C471.613 216.355 488.353 227.341 507.025 228.077L614.648 232.317C658.461 234.044 678.563 287.674 646.679 317.774L559.32 400.242C545.31 413.468 540.046 433.514 545.751 451.917L581.633 567.662C594.267 608.417 552.864 644.994 513.977 627.431L389.462 571.193C376.437 565.31 361.53 565.222 348.436 570.949L209.625 631.669C171.682 648.267 131.348 613.709 141.931 573.67L174.752 449.49C179.283 432.344 174.489 414.078 162.121 401.368L79.5547 316.514C49.6831 285.815 70.2595 234.239 113.059 232.533L225.277 228.059C243.519 227.331 259.949 216.814 268.247 200.552L323.6 92.0742C342.211 55.6005 394.536 56.2089 412.294 93.1055Z" fill="#131313" stroke="#CE207A"/>
</svg>
