<svg width="734" height="674" viewBox="0 0 734 674" fill="none" xmlns="http://www.w3.org/2000/svg">
<path d="M369.424 4.03461L476.289 226.068C476.529 226.568 477.027 226.895 477.581 226.916L731.104 236.906C731.546 236.923 731.749 237.465 731.427 237.769L537.11 421.209C536.694 421.601 536.538 422.197 536.707 422.743L613.865 671.633C613.992 672.045 613.574 672.414 613.181 672.237L369.611 562.227C369.224 562.053 368.781 562.05 368.392 562.22L116.696 672.319C116.313 672.487 115.905 672.138 116.012 671.733L181.839 422.675C181.973 422.166 181.831 421.623 181.464 421.246L2.92228 237.759C2.62054 237.448 2.82839 236.928 3.26071 236.91L253.935 226.916C254.477 226.895 254.965 226.582 255.211 226.099L368.528 4.0242C368.716 3.65578 369.245 3.66192 369.424 4.03461Z" fill="#131313" stroke="#CE207A"/>
</svg>
